<?xml version="1.0" encoding="utf-8"?>
<!-- Generator: Adobe Illustrator 28.1.0, SVG Export Plug-In . SVG Version: 6.00 Build 0)  -->
<svg
  version="1.1"
  id="Layer_1"
  xmlns="http://www.w3.org/2000/svg"
  xmlns:xlink="http://www.w3.org/1999/xlink"
  x="0px"
  y="0px"
  viewBox="0 0 356 68"
  style="enable-background: new 0 0 356 68"
  xml:space="preserve"
>
  <style type="text/css">
  .st0 {
    fill: #ffffff;
  }
  .st1 {
    fill: #6666ff;
  }
  </style>
  <g>
    <path
      class="st0"
      d="M70.9,29.3c1.6,2.4,2.4,5.6,2.4,9.9c0,2.6-0.4,4.9-1.2,7c-0.8,2.1-2,3.7-3.5,4.8c-1.5,1.2-3.3,1.8-5.2,1.8
		c-2.4,0-4.3-0.8-5.8-2.5v11.3l-9.3,0.9V26.8h8.3l0.4,2.4c1-1.2,2.1-2.1,3.4-2.6c1.2-0.5,2.5-0.8,3.7-0.8C67,25.8,69.3,27,70.9,29.3
		z M63.7,39.4c0-1.9-0.1-3.4-0.4-4.4c-0.3-1-0.6-1.7-1-2s-1-0.5-1.6-0.5c-1.3,0-2.4,0.8-3.3,2.3v9.6c0.4,0.6,0.8,1.1,1.3,1.3
		c0.4,0.3,0.9,0.4,1.5,0.4C62.5,46.2,63.7,43.9,63.7,39.4z"
    />
  </g>
  <g>
    <path
      class="st0"
      d="M99.7,41.9H84.5c0.2,1.7,0.8,2.8,1.6,3.4s2,0.9,3.5,0.9c0.9,0,1.8-0.2,2.7-0.5c0.9-0.4,1.9-0.9,3-1.7l3.8,5.1
		c-3,2.5-6.5,3.7-10.3,3.7c-4.4,0-7.8-1.2-10.1-3.7c-2.3-2.5-3.4-5.7-3.4-9.8c0-2.5,0.5-4.8,1.4-6.8c1-2.1,2.4-3.7,4.3-4.9
		c1.9-1.2,4.2-1.8,6.8-1.8c2.5,0,4.6,0.5,6.5,1.6c1.8,1,3.3,2.5,4.3,4.5c1,2,1.5,4.3,1.5,7.1C99.9,39.8,99.8,40.8,99.7,41.9z
		 M90.7,36.4c0-1.5-0.3-2.6-0.7-3.4c-0.4-0.8-1.2-1.2-2.3-1.2c-1,0-1.8,0.4-2.3,1.1c-0.5,0.7-0.9,2-1,3.9h6.3V36.4z"
    />
  </g>
  <g>
    <path
      class="st0"
      d="M123.8,27.8c1.2,1.3,1.8,3.2,1.8,5.5v18.5h-9.3V35c0-0.9-0.1-1.6-0.4-1.9c-0.2-0.3-0.6-0.5-1.1-0.5
		c-1,0-2.1,0.8-3.1,2.5v16.8h-9.3V26.8h8.1l0.7,2.6c1.2-1.2,2.3-2.1,3.5-2.7c1.2-0.6,2.6-0.8,4.1-0.8
		C120.9,25.8,122.6,26.5,123.8,27.8z"
    />
  </g>
  <path
    class="st1"
    d="M179.7,27.8c1.2,1.3,1.8,3.2,1.8,5.5v18.5h-9.3V35c0-0.9-0.1-1.6-0.4-1.9c-0.2-0.3-0.6-0.5-1.1-0.5
	c-1,0-2.1,0.8-3.1,2.5v16.8h-9.3V26.8h8.1l0.7,2.6c1.2-1.2,2.3-2.1,3.5-2.7c1.2-0.6,2.6-0.8,4.1-0.8
	C176.8,25.8,178.5,26.5,179.7,27.8z"
  />
  <path
    class="st1"
    d="M209.5,16.9v35h-8.3l-0.3-2.6c-1.8,2.4-4.2,3.5-7.1,3.5c-3.2,0-5.5-1.2-7.1-3.6c-1.6-2.4-2.4-5.7-2.4-10
	c0-2.6,0.4-4.9,1.3-6.9s2.1-3.6,3.7-4.7c1.6-1.1,3.4-1.7,5.5-1.7c2.2,0,4,0.7,5.5,2V16L209.5,16.9z M200.2,43.9V33.9
	c-0.4-0.5-0.9-0.8-1.3-1.1c-0.4-0.2-0.9-0.4-1.5-0.4c-1.1,0-2,0.5-2.6,1.6c-0.7,1.1-1,2.8-1,5.2c0,2.8,0.3,4.6,0.8,5.5
	c0.5,0.9,1.3,1.4,2.3,1.4C198.3,46.1,199.4,45.4,200.2,43.9z"
  />
  <path
    class="st1"
    d="M236.1,51.9H228l-0.3-2.7c-1.7,2.4-4.2,3.7-7.4,3.7c-2.4,0-4.1-0.7-5.3-2.1s-1.7-3.4-1.7-5.9v-18h9.3v16.8
	c0,0.9,0.1,1.5,0.4,1.9c0.3,0.4,0.7,0.5,1.2,0.5c0.4,0,0.9-0.2,1.4-0.5c0.5-0.3,0.9-0.9,1.3-1.6V26.8h9.3V51.9z"
  />
  <path
    class="st1"
    d="M255.5,26.7c1.7,0.6,3.1,1.4,4.3,2.4l-3.3,5c-0.9-0.6-1.9-1-2.9-1.3s-2.1-0.5-3.1-0.5c-1.4,0-2.1,0.4-2.1,1.1
	c0,0.3,0.1,0.6,0.3,0.8c0.2,0.2,0.6,0.5,1.3,0.8c0.7,0.3,1.8,0.7,3.4,1.2c2.5,0.8,4.4,1.8,5.6,3c1.2,1.2,1.8,2.9,1.8,5.1
	c0,1.7-0.5,3.2-1.5,4.5c-1,1.3-2.4,2.3-4.2,3.1s-3.8,1.1-6.1,1.1c-2.2,0-4.3-0.4-6.2-1.1c-1.9-0.7-3.5-1.7-4.9-2.9l4.4-4.9
	c0.9,0.8,2,1.4,3.1,1.8c1.1,0.5,2.2,0.7,3.3,0.7c0.8,0,1.5-0.1,2-0.4c0.5-0.3,0.7-0.6,0.7-1.2c0-0.4-0.1-0.8-0.3-1
	c-0.2-0.2-0.6-0.5-1.2-0.7c-0.6-0.2-1.7-0.6-3.3-1.1c-4.9-1.4-7.3-4.2-7.3-8.1c0-1.5,0.4-2.9,1.3-4.1c0.9-1.2,2.1-2.2,3.8-2.9
	c1.6-0.7,3.6-1.1,5.9-1.1C252,25.8,253.8,26.1,255.5,26.7z"
  />
  <path
    class="st1"
    d="M280.8,50.6c-1,0.7-2.2,1.2-3.5,1.6c-1.4,0.4-2.7,0.6-4,0.6c-3.1,0-5.4-0.9-6.9-2.6c-1.5-1.7-2.2-4.2-2.2-7.6
	v-9.5h-3v-6.3h3v-5.3l9.3-1.1v6.3h5.6l-0.9,6.3h-4.7v9.4c0,1.1,0.2,1.9,0.5,2.3c0.3,0.5,0.8,0.7,1.5,0.7c0.8,0,1.6-0.2,2.3-0.7
	L280.8,50.6z"
  />
  <path
    class="st1"
    d="M299.9,26.4l-1.5,9c-0.8-0.3-1.6-0.4-2.3-0.4c-1.4,0-2.4,0.5-3.1,1.4s-1.2,2.3-1.6,4.1v11.4h-9.3V26.8h8.1
	l0.8,4.7c0.5-1.7,1.4-3,2.5-4c1.2-1,2.4-1.5,3.8-1.5C298.1,26,299,26.1,299.9,26.4z"
  />
  <path
    class="st1"
    d="M309.8,14.3c1,1,1.5,2.1,1.5,3.5s-0.5,2.6-1.5,3.5c-1,1-2.2,1.4-3.7,1.4s-2.7-0.5-3.7-1.4c-1-1-1.5-2.1-1.5-3.5
	s0.5-2.6,1.5-3.5c1-1,2.2-1.4,3.7-1.4S308.8,13.4,309.8,14.3z M310.7,26.8v25.1h-9.3V26.8H310.7z"
  />
  <path
    class="st1"
    d="M336.7,45.7c0.2,0.4,0.6,0.7,1.2,1l-1.9,6c-1.7-0.1-3.1-0.4-4.1-1c-1.1-0.5-1.9-1.4-2.6-2.5
	c-1.6,2.4-4.2,3.7-7.6,3.7c-2.5,0-4.5-0.7-6-2.2c-1.5-1.5-2.3-3.4-2.3-5.8c0-2.8,1-4.9,3.1-6.4c2.1-1.5,5.1-2.2,9-2.2h1.8v-0.6
	c0-1.3-0.3-2.1-0.8-2.5c-0.5-0.4-1.5-0.7-2.9-0.7c-0.8,0-1.7,0.1-2.9,0.4s-2.4,0.6-3.6,1l-2-5.9c1.5-0.6,3.2-1.1,5-1.5
	c1.8-0.3,3.4-0.5,4.9-0.5c3.9,0,6.8,0.8,8.6,2.3c1.8,1.5,2.7,3.8,2.7,7v8.6C336.3,44.6,336.4,45.3,336.7,45.7z M326.1,45.8
	c0.5-0.3,0.9-0.6,1.2-1.1v-3.7h-1c-1.3,0-2.3,0.2-2.9,0.7c-0.6,0.5-0.9,1.2-0.9,2.2c0,0.7,0.2,1.3,0.6,1.7s0.9,0.6,1.5,0.6
	C325.1,46.3,325.6,46.1,326.1,45.8z"
  />
  <path
    class="st1"
    d="M341.9,50.7c-1.4-1.4-2-3.4-2-6V16.9l9.3-0.9v28.3c0,0.8,0.4,1.3,1.1,1.3c0.3,0,0.7-0.1,1-0.2l1.6,6.6
	c-1.5,0.6-3.2,0.8-5.2,0.8C345.2,52.8,343.2,52.1,341.9,50.7z"
  />
  <g>
    <path
      class="st0"
      d="M25.5,13L25.5,13C14.2,13,5,22.1,5,33.4c0,8.2,4.9,15.6,12.4,18.8l4.6-12.1c-2.4-1.2-4.1-3.8-4.1-6.7
		c0-4.1,3.4-7.5,7.5-7.5s7.5,3.4,7.5,7.5c0,2.9-1.7,5.5-4.1,6.7l4.6,12.1c7.3-3.1,12.4-10.4,12.4-18.8C45.9,22.1,36.8,13,25.5,13z"
    />
  </g>
  <path
    class="st1"
    d="M153.5,22.1l-5.6-5.1v-3.3l5.6-5.3l10.2,4.7l-1.6-3.1L152.7,5l-5.3,4l-0.8-1l-3.5,1v3.8h-4.7
	c-0.5-1.4-1.3-2.5-2.5-3.4c-1.2-0.9-2.6-1.3-4.2-1.3c-2,0-3.7,0.7-5.1,2.1s-2.1,3.1-2.1,5.1c0,1.3,0.4,2.6,1,3.7
	c0.7,1.2,1.6,2,2.7,2.6l6.1,23c0,0-2.4,0.6-3.4,1s-2,1-2,1v5.2h26.1v-5.2c0,0-1.1-0.5-2-1c-1.1-0.5-3.7-1-3.7-1l-12-25.1
	c0.2-0.3,0.4-0.6,0.6-0.9c0.1-0.3,0.3-0.6,0.4-0.9h4.7v3.8l3.3,1l1-1l5.3,4l9.6-5l1.6-3.1L153.5,22.1z M133.4,16.9
	c-0.5,0.5-1,0.7-1.7,0.7c-0.7,0-1.2-0.2-1.7-0.7c-0.5-0.5-0.7-1-0.7-1.7c0-0.7,0.2-1.2,0.7-1.7c0.5-0.5,1-0.7,1.7-0.7
	c0.7,0,1.2,0.2,1.7,0.7c0.5,0.5,0.7,1,0.7,1.7C134.1,15.9,133.9,16.5,133.4,16.9z"
  />
</svg>
